<svg xmlns="http://www.w3.org/2000/svg" xmlns:xlink="http://www.w3.org/1999/xlink" viewBox="0 0 145.21 147.84"><defs><style>.cls-1{isolation:isolate;}.cls-2{fill:#ffeefa;}.cls-10,.cls-19,.cls-2{stroke:#6f2348;stroke-width:1.07px;}.cls-10,.cls-2{stroke-miterlimit:10;}.cls-3{fill:#361939;}.cls-4{fill:url(#linear-gradient);}.cls-5{fill:url(#linear-gradient-2);}.cls-21,.cls-6{fill:#ba695a;}.cls-7{fill:url(#linear-gradient-3);}.cls-8{fill:url(#linear-gradient-4);}.cls-9{fill:#893643;}.cls-10{fill:#eedee9;}.cls-11{fill:url(#linear-gradient-5);}.cls-12{fill:#fff;}.cls-13{fill:url(#linear-gradient-6);}.cls-14{fill:url(#linear-gradient-7);}.cls-15{fill:url(#linear-gradient-8);}.cls-16{fill:url(#linear-gradient-9);}.cls-17{fill:url(#linear-gradient-10);}.cls-18{fill:url(#linear-gradient-11);}.cls-19{fill:none;stroke-linecap:round;stroke-linejoin:round;}.cls-20{fill:#6f2348;}.cls-21{mix-blend-mode:multiply;}.cls-22{fill:#91325d;}.cls-23{fill:url(#linear-gradient-12);}.cls-24{fill:url(#linear-gradient-13);}.cls-25{fill:url(#linear-gradient-14);}.cls-26{fill:url(#linear-gradient-15);}.cls-27{fill:url(#linear-gradient-16);}.cls-28{fill:url(#linear-gradient-17);}.cls-29{fill:#d15e96;}.cls-30{fill:#85c7ff;}.cls-31{fill:#77b6f1;opacity:0.5;}.cls-32{fill:url(#linear-gradient-18);}.cls-33{fill:url(#linear-gradient-19);}.cls-34{fill:url(#linear-gradient-20);}</style><linearGradient id="linear-gradient" x1="50.93" y1="93.08" x2="50.93" y2="23.75" gradientUnits="userSpaceOnUse"><stop offset="0" stop-color="#c7572a"/><stop offset="1" stop-color="#ffda7a"/></linearGradient><linearGradient id="linear-gradient-2" x1="71.48" y1="83.59" x2="71.48" y2="28.22" gradientUnits="userSpaceOnUse"><stop offset="0" stop-color="#c23b1a"/><stop offset="1" stop-color="#e0af69"/></linearGradient><linearGradient id="linear-gradient-3" x1="10.69" y1="48.74" x2="34.72" y2="48.74" xlink:href="#linear-gradient"/><linearGradient id="linear-gradient-4" x1="51.55" y1="66.8" x2="51.55" y2="38.16" gradientUnits="userSpaceOnUse"><stop offset="0" stop-color="#f8bf7e"/><stop offset="1" stop-color="#ffe2ba"/></linearGradient><linearGradient id="linear-gradient-5" x1="37.78" y1="58.78" x2="47.1" y2="58.78" gradientUnits="userSpaceOnUse"><stop offset="0" stop-color="#7d2a4d"/><stop offset="1" stop-color="#2c1736"/></linearGradient><linearGradient id="linear-gradient-6" x1="65.3" y1="56.47" x2="74.62" y2="56.47" xlink:href="#linear-gradient-5"/><linearGradient id="linear-gradient-7" x1="52.64" y1="89.67" x2="52.64" y2="57.83" gradientUnits="userSpaceOnUse"><stop offset="0" stop-color="#e47947"/><stop offset="1" stop-color="#ffd8a1"/></linearGradient><linearGradient id="linear-gradient-8" x1="52.84" y1="66.8" x2="52.84" y2="55.01" gradientUnits="userSpaceOnUse"><stop offset="0" stop-color="#2c1736"/><stop offset="1" stop-color="#7d2a4d"/></linearGradient><linearGradient id="linear-gradient-9" x1="10.69" y1="54.77" x2="23.53" y2="54.77" xlink:href="#linear-gradient-7"/><linearGradient id="linear-gradient-10" x1="876.36" y1="44.71" x2="900.39" y2="44.71" gradientTransform="matrix(-1, 0, 0, 1, 965.61, 0)" xlink:href="#linear-gradient"/><linearGradient id="linear-gradient-11" x1="876.36" y1="50.75" x2="889.2" y2="50.75" gradientTransform="matrix(-1, 0, 0, 1, 965.61, 0)" gradientUnits="userSpaceOnUse"><stop offset="0" stop-color="#cc6c40"/><stop offset="1" stop-color="#d9b889"/></linearGradient><linearGradient id="linear-gradient-12" x1="49.16" y1="25.52" x2="49.16" y2="5.9" gradientTransform="matrix(1, -0.05, 0.05, 1, 1.13, 25.57)" xlink:href="#linear-gradient-8"/><linearGradient id="linear-gradient-13" x1="48.2" y1="16.13" x2="48.2" y2="-22.36" gradientTransform="matrix(1, -0.05, 0.05, 1, 1.13, 25.57)" xlink:href="#linear-gradient-8"/><linearGradient id="linear-gradient-14" x1="959.31" y1="18.74" x2="992.43" y2="18.74" gradientTransform="matrix(-1, 0.08, 0.08, 1, 988.29, 13.46)" gradientUnits="userSpaceOnUse"><stop offset="0" stop-color="#b03b6c"/><stop offset="1" stop-color="#3c1f4a"/></linearGradient><linearGradient id="linear-gradient-15" x1="81.94" y1="13.25" x2="112.59" y2="13.25" gradientTransform="translate(-1.9 120.86) rotate(-13.67)" xlink:href="#linear-gradient-7"/><linearGradient id="linear-gradient-16" x1="81.95" y1="15.13" x2="112.59" y2="15.13" gradientTransform="translate(-1.9 120.86) rotate(-13.67)" gradientUnits="userSpaceOnUse"><stop offset="0" stop-color="#ba2509"/><stop offset="0.15" stop-color="#c23b1a"/><stop offset="0.46" stop-color="#d77247"/><stop offset="0.9" stop-color="#f8cb8e"/><stop offset="1" stop-color="#ffdf9e"/></linearGradient><linearGradient id="linear-gradient-17" x1="52.05" y1="147.84" x2="52.05" y2="67.31" xlink:href="#linear-gradient-8"/><linearGradient id="linear-gradient-18" x1="276.35" y1="433.12" x2="314.63" y2="433.12" gradientTransform="matrix(0.49, 0.87, -0.87, 0.49, 290.99, -361.08)" gradientUnits="userSpaceOnUse"><stop offset="0" stop-color="#ffd363"/><stop offset="0.14" stop-color="#fccd60"/><stop offset="0.31" stop-color="#f5bd56"/><stop offset="0.51" stop-color="#e9a247"/><stop offset="0.73" stop-color="#d97c31"/><stop offset="0.95" stop-color="#c44c15"/><stop offset="1" stop-color="#bf420f"/></linearGradient><linearGradient id="linear-gradient-19" x1="455.35" y1="244.61" x2="455.35" y2="280.9" gradientTransform="translate(-471.06 202.87) rotate(-39.82)" gradientUnits="userSpaceOnUse"><stop offset="0" stop-color="#ffd680"/><stop offset="0.37" stop-color="#e3a166"/><stop offset="0.79" stop-color="#c56a4b"/><stop offset="1" stop-color="#ba5441"/></linearGradient><linearGradient id="linear-gradient-20" x1="281.51" y1="427.4" x2="314.63" y2="427.4" gradientTransform="matrix(0.49, 0.87, -0.87, 0.49, 290.99, -361.08)" xlink:href="#linear-gradient-5"/></defs><title>Asset 1</title><g class="cls-1"><g id="Layer_2" data-name="Layer 2"><g id="Layer_2-2" data-name="Layer 2"><path class="cls-2" d="M125,32.49A19.51,19.51,0,0,0,105.4,49.8l-7.08,5.1,7.51,1.22a19.73,19.73,0,0,0,38.84-4.39A19.46,19.46,0,0,0,125,32.49Z"/><path class="cls-3" d="M13.24,80.19s17-29.5,74.15-12.88C87.39,67.31,76.41,113,13.24,80.19Z"/><path class="cls-4" d="M49.63,23.75S35.32,36.64,23.15,37c0,0-3.78,35.08-3.86,38.66s35,40.09,63.28-4.66c0,0-8.24-24.7-10-40.09,0,0-14.67-4.65-19.33-2.15l-.35-5-3.94,5Z"/><path class="cls-5" d="M72.54,30.91a76.32,76.32,0,0,0-12.15-2.69c4.7,9,16.89,34.92,12,55.37A62.63,62.63,0,0,0,82.57,71S74.33,46.3,72.54,30.91Z"/><path class="cls-6" d="M34.72,32S38.3,47,24.08,57.66C11.42,67.19,34.72,32,34.72,32Z"/><path class="cls-7" d="M23.91,32S14.37,45.71,11.82,46.67s0,20,0,20,20-7.32,22.9-34.67C34.72,32,29,29.17,23.91,32Z"/><path class="cls-8" d="M43.15,53.69s5.59-8.64,4.43-13.83S49,43,49,43s.09-2.5,0-4.29,1.07,7.6,7.78,10.91l3.15,15.85L46.17,66.8Z"/><path class="cls-9" d="M43.9,63.19s11.24-5.79,18.08-1c0,0,5.93,16.33,4,21.6s-20.84,13.57-27.28.51A40.33,40.33,0,0,1,43.9,63.19Z"/><path class="cls-6" d="M31.19,64.68s10.29-5,13.78-1.43,1.66-3.93,1.66-3.93-6.1-6.47-15.44-.71C25.05,62.4,31.19,64.68,31.19,64.68Z"/><path class="cls-10" d="M31.18,63.19s10.29-5,13.78-1.44,1.66-3.92,1.66-3.92-6.1-6.47-15.44-.71C25,60.9,31.18,63.19,31.18,63.19Z"/><path class="cls-11" d="M40.4,54.84a4.8,4.8,0,0,0-2.62,4,4,4,0,0,0,.48,1.89c2.59-.52,5.24-.52,6.7,1,3.48,3.58,1.66-3.92,1.66-3.92A11.32,11.32,0,0,0,40.4,54.84Z"/><polygon class="cls-12" points="40.28 60.1 34.86 57.95 35.27 56.73 40.7 58.89 40.28 60.1"/><path class="cls-6" d="M58.72,62.37s10.29-5,13.77-1.44S74.15,57,74.15,57s-6.09-6.47-15.43-.71C52.58,60.08,58.72,62.37,58.72,62.37Z"/><path class="cls-10" d="M58.71,60.87s10.29-5,13.77-1.43,1.66-3.93,1.66-3.93S68.05,49,58.71,54.8C52.57,58.59,58.71,60.87,58.71,60.87Z"/><path class="cls-13" d="M67.93,52.53a4.79,4.79,0,0,0-2.63,4,4.18,4.18,0,0,0,.48,1.9c2.59-.52,5.24-.53,6.7,1C76,63,74.14,55.51,74.14,55.51A11.34,11.34,0,0,0,67.93,52.53Z"/><polygon class="cls-12" points="67.8 57.79 62.38 55.63 62.8 54.41 68.22 56.57 67.8 57.79"/><path class="cls-14" d="M43.73,60.8s11.45-5.91,18.43-1.07c0,0,6,16.64,4.1,22S48.74,95.16,38.72,84.25C38.72,84.25,37.64,71.18,43.73,60.8Z"/><path class="cls-15" d="M50.93,65.46s-5.41-3.81-4.7-7.63,11.64-2.94,12.53-2,1.79,4.12-2.32,9.67C56.44,65.46,54.07,68.47,50.93,65.46Z"/><path class="cls-16" d="M22.71,48.74a3.64,3.64,0,0,1-5.48,1.76S24.39,39,18.9,44.2a8.81,8.81,0,0,1-7.22,2.56c-2.3,1.65.14,19.95.14,19.95a22,22,0,0,0,3.11-1.54C24.33,57.7,24.36,45.24,22.71,48.74Z"/><path class="cls-6" d="M65.22,28S61.64,42.92,75.86,53.63C88.52,63.17,65.22,28,65.22,28Z"/><path class="cls-17" d="M76,28s9.54,13.68,12.09,14.64,0,20,0,20-20-7.31-22.9-34.67C65.22,28,70.94,25.15,76,28Z"/><path class="cls-18" d="M77.23,44.71a3.63,3.63,0,0,0,5.48,1.76S75.55,34.93,81,40.18a8.8,8.8,0,0,0,7.22,2.56c2.3,1.64-.14,19.94-.14,19.94A22.5,22.5,0,0,1,85,61.15C75.61,53.68,75.58,41.22,77.23,44.71Z"/><line class="cls-19" x1="54.11" y1="66.77" x2="54.11" y2="72.13"/><path class="cls-19" d="M50.93,81.44s3.18-21.12,6.58,0"/><path class="cls-6" d="M67.06,44.56a8,8,0,0,1-.36,1.17,10.3,10.3,0,0,1-.48,1.06A12.76,12.76,0,0,1,65,48.67a15.45,15.45,0,0,1-3.1,3l-.36.26a1.23,1.23,0,0,1-1.72-.27,1.43,1.43,0,0,1-.12-.21A12,12,0,0,1,59,49.57a9.48,9.48,0,0,1-.33-2.2,9.32,9.32,0,0,1,1.9,1.15,12.67,12.67,0,0,1,1.52,1.39l-2.2-.21a15.19,15.19,0,0,1,3-3.11,13.91,13.91,0,0,1,1.88-1.19,8.53,8.53,0,0,1,1.06-.48A6.78,6.78,0,0,1,67.06,44.56Z"/><path class="cls-6" d="M33,45a7.22,7.22,0,0,1,1.13.47,9.85,9.85,0,0,1,1,.58,13.29,13.29,0,0,1,1.75,1.38,14.85,14.85,0,0,1,2.72,3.39h-2.2A12.26,12.26,0,0,1,39,49.61a9.48,9.48,0,0,1,2-1,9.4,9.4,0,0,1-.55,2.15,12.3,12.3,0,0,1-.9,1.86,1.23,1.23,0,0,1-1.68.43L37.69,53l-.34-.3a15.16,15.16,0,0,1-2.79-3.34,13.11,13.11,0,0,1-1-2,9.63,9.63,0,0,1-.37-1.11A6.38,6.38,0,0,1,33,45Z"/><path class="cls-20" d="M67.11,43.48a7.77,7.77,0,0,1-.36,1.18,8.53,8.53,0,0,1-.48,1.06,13.31,13.31,0,0,1-1.19,1.88,15.45,15.45,0,0,1-3.1,3l-.36.26a1.23,1.23,0,0,1-1.72-.27l-.12-.21a12.08,12.08,0,0,1-.71-1.94,8.81,8.81,0,0,1-.34-2.19,9.29,9.29,0,0,1,1.9,1.14,12,12,0,0,1,1.52,1.4L60,48.63a14.94,14.94,0,0,1,3-3.11,13.26,13.26,0,0,1,1.87-1.2c.34-.18.7-.33,1.06-.48A8.14,8.14,0,0,1,67.11,43.48Z"/><path class="cls-20" d="M33,44a7.22,7.22,0,0,1,1.13.47,8.89,8.89,0,0,1,1,.58,12.61,12.61,0,0,1,1.75,1.37,15.07,15.07,0,0,1,2.72,3.39h-2.2a11.47,11.47,0,0,1,1.65-1.24,9,9,0,0,1,2-.95,8.91,8.91,0,0,1-.55,2.15,11.83,11.83,0,0,1-.9,1.86,1.22,1.22,0,0,1-1.68.43,1.33,1.33,0,0,1-.19-.14l-.33-.3a15.15,15.15,0,0,1-2.8-3.33,12.76,12.76,0,0,1-1-2c-.14-.35-.26-.72-.37-1.1A7.28,7.28,0,0,1,33,44Z"/><path class="cls-21" d="M48.92,28.76l.26-1.82-3.9.31C40.1,31.1,31.16,36.76,23.15,37c0,0-.63,5.85-1.38,13,16,1.88,41.17,5.32,57.38,9.94-2.49-8.52-5.59-20.28-6.61-29,0,0-14.67-4.65-19.33-2.15l-.15-2.14-2.63.22Z"/><path class="cls-22" d="M99.5,35.89c-4.63-4.28-24.82-6.59-48.86-5.27s-43.86,5.84-48,10.6l-.9.05.11,1.86c.29,5.41,22.62,8.58,49.86,7.08s49.08-7.1,48.78-12.51l-.1-1.86Z"/><path class="cls-23" d="M100.4,35.84c.3,5.41-21.54,11-48.79,12.51S2.05,46.68,1.75,41.27s21.55-11,48.79-12.51S100.1,30.43,100.4,35.84Z"/><path class="cls-24" d="M48.47,8.59c-26.66-23.74-28.53,32.1-28.53,32.1l60.31-5.2C64.27-23.18,48.47,8.59,48.47,8.59Z"/><path class="cls-25" d="M28.74,124.13c-2.07-.76-13.12-.15-17.43-5.22A4.1,4.1,0,0,1,10,121.19c-1.2,1.13-1.16-2.55-1.16-2.55a4.52,4.52,0,0,0-2.11,1.23c-1.39,1.17-.57-3.06-.57-3.06l-2.6-2.63c-13-17.63,14-23.16,14-23.16l6.92,6.1s3.32,1.2-7.12,4.32c-10.23,3.06-.72,7.58-.33,7.77,1.46.66,3.27,1.5,5.16,2.44,5.21,2.56,11.17,4.74,12.11,6.78"/><path class="cls-3" d="M15,98.15l-.8,4.6a13.49,13.49,0,0,1,3.12-1.31c10.44-3.12,7.12-4.32,7.12-4.32L17.49,91a36.41,36.41,0,0,0-3.83,1.08Z"/><path class="cls-3" d="M28.74,124.13l5.49-5.7c-.94-2-6.9-4.22-12.11-6.78-1.89-.94-3.7-1.78-5.16-2.44a12.89,12.89,0,0,1-3.5-2.43L11.34,119C15.68,124,26.67,123.37,28.74,124.13Z"/><path class="cls-26" d="M93,92.39s18.81,9.37-9.36,26.21c0,0-2.91,20.5,12.31,9.57S117.78,90.15,93,92.39Z"/><path class="cls-27" d="M95.93,128.17c12.5-9,19.21-28.88,7.44-34.44,2.78,7.65,5.08,23.67-19.74,31.84C84.36,130.25,87.08,134.52,95.93,128.17Z"/><path class="cls-28" d="M9.36,142.65l7.75-44.5-3.87-18s13.68,9.07,29.2,7.31V81.19s44.2-1.93,45-13.88L85.07,91.82l9.67,39.6S69.77,159,9.36,142.65Z"/><path class="cls-29" d="M13.24,80.19c1.1.65,2.23,1.23,3.38,1.79s2.31,1.06,3.49,1.54l1.78.68,1.81.61c.59.22,1.21.38,1.82.56s1.21.36,1.83.5,1.23.32,1.85.44l1.87.35c.62.12,1.25.17,1.88.26a16.86,16.86,0,0,0,1.88.19l1.89.12h2.84l.94-.08L42.38,87,42,87.5l0-6.31v-.48l.49,0c2-.11,4.07-.26,6.1-.45s4.07-.35,6.1-.57c4.06-.45,8.11-1,12.12-1.78,2-.37,4-.79,6-1.28,1-.26,2-.51,2.94-.81s1.94-.62,2.9-1L80,74.26l1.39-.62c.45-.22.9-.46,1.35-.7s.85-.53,1.29-.8.8-.62,1.19-.94a9.82,9.82,0,0,0,1-1.12,5.67,5.67,0,0,0,1.17-2.77,5.71,5.71,0,0,1-1,2.88,9.33,9.33,0,0,1-1,1.19c-.38.35-.77.69-1.18,1s-.84.6-1.27.88-.89.52-1.35.77l-1.38.7-1.43.6c-1,.38-1.92.75-2.9,1.06s-2,.61-3,.91q-3,.81-6,1.45c-4,.8-8.1,1.41-12.17,1.9s-8.17.85-12.28,1l.49-.51,0,6.31V88l-.43,0-1.93.13-1,.06h-1l-1.94,0L34.75,88a17.51,17.51,0,0,1-1.91-.25c-.64-.11-1.28-.18-1.91-.32L29.05,87c-.63-.13-1.25-.33-1.87-.49S26,86.16,25.34,86s-1.23-.38-1.82-.62c-1.21-.44-2.39-.94-3.56-1.46s-2.32-1.09-3.44-1.7S14.3,80.9,13.24,80.19Z"/><polygon class="cls-29" points="42.97 87.5 42.44 103.05 41.9 87.5 42.97 87.5"/><rect class="cls-30" x="32.44" y="93.74" width="4.02" height="20.45" transform="translate(-29.64 15.15) rotate(-17.48)"/><path class="cls-30" d="M25.75,76.37A10.48,10.48,0,1,0,38.9,83.22,10.49,10.49,0,0,0,25.75,76.37ZM31.32,94A8,8,0,1,1,36.56,84,8,8,0,0,1,31.32,94Z"/><path class="cls-31" d="M36.56,84a8,8,0,1,1-10.07-5.24A8,8,0,0,1,36.56,84Z"/><path class="cls-31" d="M22.66,81.32a8,8,0,0,0-1.78,4.82l8.25,8.25A7.92,7.92,0,0,0,33.51,93l.39-.39Z"/><path class="cls-31" d="M23.46,80.47,34.81,91.81a7.88,7.88,0,0,0,.92-1.23l-11-11A7.94,7.94,0,0,0,23.46,80.47Z"/><path class="cls-32" d="M76.51,97.32,67.6,94.94s-2.84-2.11.34,8.32c3.11,10.21-5.92,4.79-6.29,4.56-1.36-.84-3.06-1.88-4.88-2.94-5-2.92-10.14-6.68-12.36-6.33-4.12.64-15.81-1-15.73,5.19s12.23,1.22,14,2.53,7.39,10.85,14,11.63a4.11,4.11,0,0,0-1.16,2.37c-.27,1.63,2.77-.44,2.77-.44a4.56,4.56,0,0,1,.14,2.44c-.2,1.8,2.87-1.22,2.87-1.22l3.62.71C86.81,122.83,76.51,97.32,76.51,97.32Z"/><path class="cls-33" d="M45.55,102.24c-1.39-2.37-9.57-3.3-13.47-.34a3.85,3.85,0,0,0-1.41,4.68c3.54,1.27,10.69-1.29,12-.31,1.79,1.31,7.39,10.85,14,11.63a4.11,4.11,0,0,0-1.16,2.37c-.27,1.63,2.77-.44,2.77-.44a4.56,4.56,0,0,1,.14,2.44c-.2,1.8,2.87-1.22,2.87-1.22l3.62.71S50.66,110.94,45.55,102.24Z"/><path class="cls-19" d="M33.42,100.92s-1.94-.61-4.58,1.85"/><path class="cls-19" d="M34.21,103.28s-1.94-.6-4.57,1.85"/><path class="cls-29" d="M52.84,116.5l.93.45,1,.36,1,.28,1,.15.35.05-.26.24a5,5,0,0,0-.43.57l-.32.67c-.07.23-.12.47-.18.71l-.08.32c0,.13,0,.29,0,.27s0,0,.08,0a1,1,0,0,0,.28,0,3.61,3.61,0,0,0,.66-.26,9.8,9.8,0,0,0,1.28-.76l.32-.23.17.35a2,2,0,0,1,.15.46,1.68,1.68,0,0,1,.07.43,4.91,4.91,0,0,1,0,.85l0,.83v.18c0,.06,0,.07,0,.08s-.09-.09-.1-.07a.65.65,0,0,0,.2-.07l.3-.16c.2-.13.4-.29.6-.45.39-.32.78-.67,1.14-1l.18-.17.24,0,3.62.69H65c.7,0,1.39,0,2.08,0s1.39-.06,2.06-.2l1-.17,1-.27a7.87,7.87,0,0,0,1-.32c.3-.14.64-.22.93-.39l.89-.48.82-.58a9,9,0,0,0,1.41-1.42,8.59,8.59,0,0,0,1.08-1.7,7.66,7.66,0,0,0,.4-.93,8.47,8.47,0,0,0,.32-1,15.08,15.08,0,0,0,.42-2,17.73,17.73,0,0,0,.2-2.06c0-.7,0-1.4,0-2.09s-.09-1.4-.18-2.1a43.82,43.82,0,0,0-1.83-8.25,33.08,33.08,0,0,1,1.46,4,32.62,32.62,0,0,1,1,4.16c.12.7.2,1.41.28,2.13s.1,1.43.1,2.15a19.71,19.71,0,0,1-.11,2.17,10,10,0,0,1-.16,1.08,10.34,10.34,0,0,1-.25,1.07,7.06,7.06,0,0,1-.33,1,8.11,8.11,0,0,1-.42,1,9.4,9.4,0,0,1-1.16,1.89,10.73,10.73,0,0,1-1.55,1.61l-.91.66-1,.54a7.65,7.65,0,0,1-1,.44,5.63,5.63,0,0,1-1,.35l-1.07.27-1.08.17a19.84,19.84,0,0,1-2.17.18c-.72,0-1.44,0-2.16,0h-.07l-3.62-.74.41-.12a12.81,12.81,0,0,1-1.25,1.07,7.18,7.18,0,0,1-.7.48,3.91,3.91,0,0,1-.41.2,1.24,1.24,0,0,1-.57.12.71.71,0,0,1-.44-.19.76.76,0,0,1-.2-.37,1.22,1.22,0,0,1,0-.32l0-.21.06-.77a4.56,4.56,0,0,0,0-.74,1.37,1.37,0,0,0,0-.36A2.28,2.28,0,0,0,58,120l.49.12a10.51,10.51,0,0,1-1.4.76,4.89,4.89,0,0,1-.79.27,1.85,1.85,0,0,1-.48,0,1.11,1.11,0,0,1-.3-.12c-.08-.08-.19-.16-.21-.27a.92.92,0,0,1,0-.5,3.08,3.08,0,0,1,.12-.42c.08-.26.15-.52.25-.76l.4-.71a4.53,4.53,0,0,1,.55-.62l.08.3-1-.23-1-.35-.94-.46Z"/><path class="cls-29" d="M67.94,103.26s.15.36.38,1a9.54,9.54,0,0,1,.56,2.84,3,3,0,0,1-.62,2,2.37,2.37,0,0,1-1.05.67,3.69,3.69,0,0,1-1.23.13,11,11,0,0,1-4.51-1.58c-1.34-.82-2.67-1.63-3.9-2.43s-2.37-1.55-3.34-2.22-1.75-1.25-2.31-1.65-.87-.65-.87-.65.36.16,1,.47,1.49.74,2.52,1.3c2.07,1.11,4.81,2.65,7.47,4.26a11.3,11.3,0,0,0,4,1.56,2,2,0,0,0,1.62-.41,2.45,2.45,0,0,0,.6-1.49,10.8,10.8,0,0,0-.15-2.76C68,103.65,67.94,103.26,67.94,103.26Z"/><path class="cls-34" d="M42.7,106.27c1.79,1.31,7.39,10.85,14,11.63a4.11,4.11,0,0,0-1.16,2.37c-.27,1.63,2.77-.44,2.77-.44a4.56,4.56,0,0,1,.14,2.44c-.2,1.8,2.87-1.22,2.87-1.22l3.62.71c21.88,1.07,11.58-24.44,11.58-24.44L67.6,94.94s-2.84-2.11.34,8.32c3.11,10.21-5.92,4.79-6.29,4.56-1.36-.84-3.06-1.88-4.88-2.94-5-2.92-10.14-6.68-12.36-6.33"/><path class="cls-20" d="M106.42,25.73a2.37,2.37,0,0,1,1.37,1.43,2.54,2.54,0,0,1-.14,1.87,2.49,2.49,0,0,1-1.32,1.33A2.63,2.63,0,0,1,103,28.83a2.61,2.61,0,0,1,1.45-3.18A2.35,2.35,0,0,1,106.42,25.73Zm-2.13-12.37a3.7,3.7,0,0,1,.87-1,5.8,5.8,0,0,1,1.78-1,7,7,0,0,1,2.64-.42,9.31,9.31,0,0,1,3.4.8,13.1,13.1,0,0,1,3.44,2.2,6.65,6.65,0,0,1,1.93,2.83,4.46,4.46,0,0,1-.15,3.17,4.18,4.18,0,0,1-1.23,1.6,5.16,5.16,0,0,1-1.71.89,13.2,13.2,0,0,1-2.05.44l-2.41.34a2.21,2.21,0,0,0-1.23.57,3.88,3.88,0,0,0-.74,1,2.76,2.76,0,0,1-.31.53l-3.15-1.44c-.05,0,0-.14.07-.36a5.32,5.32,0,0,1,1.21-1.56,5.49,5.49,0,0,1,2.25-1.23,16.84,16.84,0,0,1,2-.4,8.84,8.84,0,0,0,2.11-.54,3,3,0,0,0,1.28-1.19,3.55,3.55,0,0,0,.28-2.27,3,3,0,0,0-1.31-1.85,11.73,11.73,0,0,0-1.24-.69,3.86,3.86,0,0,0-3.53-.06A4.29,4.29,0,0,0,107,14.94a7.59,7.59,0,0,0-.58.83s0,.05,0,.06Z"/></g></g></g></svg>